Coordinates
version=1
nRows=12
nColumns=38
inDegrees=yes

Units are S.I. units (second, meters, Newtons, ...)
Angles are in degrees.

endheader
time	pelvis_tilt	pelvis_list	pelvis_rotation	pelvis_tx	pelvis_ty	pelvis_tz	hip_flexion_r	hip_adduction_r	hip_rotation_r	knee_angle_r	ankle_angle_r	subtalar_angle_r	mtp_angle_r	hip_flexion_l	hip_adduction_l	hip_rotation_l	knee_angle_l	ankle_angle_l	subtalar_angle_l	mtp_angle_l	lumbar_extension	lumbar_bending	lumbar_rotation	arm_flex_r	arm_add_r	arm_rot_r	elbow_flex_r	pro_sup_r	wrist_flex_r	wrist_dev_r	arm_flex_l	arm_add_l	arm_rot_l	elbow_flex_l	pro_sup_l	wrist_flex_l	wrist_dev_l
      0.01000000	     -0.87564918	      0.62299693	     -3.53303619	     -0.15665952	      0.97118358	     -0.24227245	     -5.41033791	     -4.38455606	      5.18682502	      4.58519186	      5.68786890	     -8.98238756	      0.00000000	     -6.58439249	     -2.52454786	     -2.55920065	      4.61478885	      5.40469068	    -14.96735124	      0.00000000	      2.10716152	     -0.16111297	     -2.49079063	     -6.31765358	     -2.75518505	      7.45408053	     18.31673266	     43.14324247	      0.00000000	      0.00000000	     -8.98773936	     -7.19736222	     10.93125404	     19.94414903	     43.14324247	      0.00000000	      0.00000000
      0.02000000	     -0.87744235	      0.61846852	     -3.54400357	     -0.15667190	      0.97118086	     -0.24220796	     -5.40472134	     -4.37742765	      5.15750157	      4.58054557	      5.71656044	     -8.89514299	      0.00000000	     -6.59033136	     -2.53155146	     -2.52265731	      4.63175656	      5.35856513	    -15.06626655	      0.00000000	      2.10517529	     -0.16672310	     -2.46779192	     -6.51554767	     -2.62546820	      5.31377524	     19.12405037	     43.55314785	      0.00000000	      0.00000000	     -9.26292429	     -7.05931822	      8.58991029	     20.97763876	     43.55314785	      0.00000000	      0.00000000
      0.03000000	     -0.88231763	      0.61859430	     -3.54135903	     -0.15669718	      0.97117831	     -0.24216433	     -5.40454997	     -4.37528154	      5.22814693	      4.59364045	      5.66605587	     -9.03104160	      0.00000000	     -6.58014831	     -2.53623870	     -2.51659075	      4.62612873	      5.35916903	    -15.05423164	      0.00000000	      2.10350081	     -0.17912156	     -2.46889329	     -6.63446630	     -2.55649606	      4.21495742	     19.61897625	     43.80596053	      0.00000000	      0.00000000	     -9.40100082	     -6.97761194	      7.35162271	     21.50225747	     43.80596053	      0.00000000	      0.00000000
      0.04000000	     -0.89466011	      0.62291233	     -3.54484821	     -0.15672462	      0.97118629	     -0.24211726	     -5.32605751	     -4.36910910	      5.15567065	      4.45867717	      5.79052791	     -8.87455967	      0.00000000	     -6.56340937	     -2.53444040	     -2.48381203	      4.63662487	      5.32607599	    -15.15734997	      0.00000000	      2.11743486	     -0.19834803	     -2.48824192	     -6.67858316	     -2.49290840	      3.33517218	     19.92594220	     44.02534822	      0.00000000	      0.00000000	     -9.52643832	     -6.89840999	      6.27672401	     21.91011247	     44.02534822	      0.00000000	      0.00000000
      0.05000000	     -0.94085820	      0.59763590	     -3.54317847	     -0.15675578	      0.97117849	     -0.24201224	     -5.27418906	     -4.32921325	      5.01099385	      4.45694844	      5.80588901	     -8.68256064	      0.00000000	     -6.54523530	     -2.57808246	     -2.43713384	      4.69663126	      5.25724359	    -15.20787010	      0.00000000	      2.19967926	     -0.18009844	     -2.41733928	     -6.75114264	     -2.42481197	      2.59327197	     20.04673926	     44.19588830	      0.00000000	      0.00000000	     -9.50699074	     -6.81180276	      5.43144484	     22.14361310	     44.19588830	      0.00000000	      0.00000000
      0.06000000	     -0.88049190	      0.59305959	     -3.56743946	     -0.15682023	      0.97124650	     -0.24195242	     -5.27238076	     -4.32242126	      4.83876377	      4.33607827	      6.00117518	     -8.28661766	      0.00000000	     -6.55516942	     -2.57356151	     -2.59144110	      4.59140009	      5.38691819	    -15.02749318	      0.00000000	      2.09349284	     -0.19128459	     -2.46601865	     -6.63753107	     -2.42147881	      2.58372382	     19.94333282	     44.21463322	      0.00000000	      0.00000000	     -9.53756313	     -6.82644835	      5.37817289	     21.99477014	     44.21463322	      0.00000000	      0.00000000
      0.07000000	     -0.86227909	      0.57789164	     -3.57833399	     -0.15680894	      0.97125967	     -0.24189058	     -5.31009012	     -4.30977414	      4.93470885	      4.37397574	      5.91938565	     -8.40991565	      0.00000000	     -6.58128292	     -2.59483696	     -2.57578963	      4.59417672	      5.41483733	    -14.98257772	      0.00000000	      2.06677309	     -0.19133668	     -2.44860687	     -6.83080483	     -2.48528404	      2.49944160	     20.60585904	     44.29786437	      0.00000000	      0.00000000	     -9.72044320	     -6.87804751	      5.19487730	     22.63711877	     44.29786437	      0.00000000	      0.00000000
      0.08000000	     -0.93755698	      0.57849932	     -3.56444545	     -0.15685880	      0.97116023	     -0.24187717	     -5.21592635	     -4.30025783	      4.85305795	      4.35033953	      5.96981882	     -8.29982261	      0.00000000	     -6.47721793	     -2.60097776	     -2.68804073	      4.55729631	      5.47428519	    -14.81288688	      0.00000000	      2.15559962	     -0.19252246	     -2.43502641	     -7.12121816	     -2.54276498	      2.44337017	     21.31060396	     44.33332397	      0.00000000	      0.00000000	    -10.00375440	     -6.95018738	      5.07456485	     23.33967523	     44.33332397	      0.00000000	      0.00000000
      0.09000000	     -1.18564039	      0.58809674	     -3.59384027	     -0.15707913	      0.97081440	     -0.24177644	     -4.82197502	     -4.29264689	      4.90560009	      4.13449617	      6.16133096	     -8.11517682	      0.00000000	     -6.12573113	     -2.62629468	     -2.82939952	      4.39605346	      5.75634454	    -14.30282763	      0.00000000	      2.43517888	     -0.21169530	     -2.34672878	     -7.48235896	     -2.66699262	      2.32593403	     22.48544863	     44.37753954	      0.00000000	      0.00000000	    -10.36114392	     -7.07030718	      4.87682687	     24.50563963	     44.37753954	      0.00000000	      0.00000000
      0.10000000	     -1.15027607	      0.53940342	     -3.57614232	     -0.15698869	      0.97092565	     -0.24169225	     -4.83262698	     -4.22253421	      4.57539160	      4.06097708	      6.27841655	     -7.61902784	      0.00000000	     -6.14889629	     -2.66385387	     -3.08334865	      4.37550971	      5.70114490	    -14.22199701	      0.00000000	      2.39623787	     -0.18425014	     -2.43835818	     -8.21747231	     -2.72494032	      2.04873913	     24.09760444	     44.44465412	      0.00000000	      0.00000000	    -11.10383244	     -7.15115309	      4.45491516	     26.08248350	     44.44465412	      0.00000000	      0.00000000
      0.11000000	     -0.89941870	      0.57703561	     -3.57906213	     -0.15687982	      0.97120223	     -0.24175905	     -5.29421042	     -4.30046841	      5.21542884	      4.42825935	      5.76977507	     -8.94532166	      0.00000000	     -6.53333262	     -2.60653341	     -2.50772554	      4.59191156	      5.31367713	    -15.20293277	      0.00000000	      2.10523160	     -0.22793701	     -2.42485305	     -6.82765249	     -2.37574082	      1.28490771	     20.76195551	     44.48319722	      0.00000000	      0.00000000	     -9.78339581	     -6.74100897	      3.73414034	     23.01993759	     44.48319722	      0.00000000	      0.00000000
      0.12000000	     -0.88174829	      0.57514233	     -3.58499455	     -0.15689148	      0.97124725	     -0.24170961	     -5.30000416	     -4.29537544	      5.04338598	      4.40952364	      5.84064198	     -8.63655369	      0.00000000	     -6.55020370	     -2.60685311	     -2.66775584	      4.58472654	      5.40612808	    -14.93568708	      0.00000000	      2.07900349	     -0.23680018	     -2.41991186	     -6.97599511	     -2.42511387	      1.29855313	     21.30202725	     44.53598846	      0.00000000	      0.00000000	     -9.92745122	     -6.78887759	      3.66857886	     23.50366136	     44.53598846	      0.00000000	      0.00000000
